<mxfile host="app.diagrams.net" modified="2023-10-13T11:41:15.084Z" agent="Mozilla/5.0 (Windows NT 10.0; Win64; x64) AppleWebKit/537.36 (KHTML, like Gecko) Chrome/117.0.0.0 Safari/537.36" etag="2uDyPfuurRSljbiD_ns5" version="22.0.4" type="github" pages="2">
  <diagram name="Page-1" id="i3Bq2wIUowkESgG7gXPR">
    <mxGraphModel dx="593" dy="1450" grid="0" gridSize="10" guides="1" tooltips="1" connect="1" arrows="1" fold="1" page="0" pageScale="1" pageWidth="827" pageHeight="1169" math="0" shadow="0">
      <root>
        <mxCell id="0" />
        <mxCell id="1" parent="0" />
        <mxCell id="M2za0-usRnXLjD97VA7g-3" value="" style="whiteSpace=wrap;html=1;aspect=fixed;fontSize=16;" parent="1" vertex="1">
          <mxGeometry x="673" y="-475" width="468" height="468" as="geometry" />
        </mxCell>
        <mxCell id="M2za0-usRnXLjD97VA7g-21" style="edgeStyle=none;curved=1;rounded=0;orthogonalLoop=1;jettySize=auto;html=1;exitX=0.5;exitY=0.5;exitDx=0;exitDy=0;exitPerimeter=0;entryX=0;entryY=1;entryDx=0;entryDy=0;fontSize=12;startSize=8;endSize=8;" parent="1" source="M2za0-usRnXLjD97VA7g-4" target="M2za0-usRnXLjD97VA7g-13" edge="1">
          <mxGeometry relative="1" as="geometry" />
        </mxCell>
        <mxCell id="M2za0-usRnXLjD97VA7g-22" style="edgeStyle=none;curved=1;rounded=0;orthogonalLoop=1;jettySize=auto;html=1;exitX=0.5;exitY=0.5;exitDx=0;exitDy=0;exitPerimeter=0;entryX=0;entryY=0.5;entryDx=0;entryDy=0;fontSize=12;startSize=8;endSize=8;" parent="1" source="M2za0-usRnXLjD97VA7g-4" target="M2za0-usRnXLjD97VA7g-14" edge="1">
          <mxGeometry relative="1" as="geometry" />
        </mxCell>
        <mxCell id="M2za0-usRnXLjD97VA7g-4" value="Senior&amp;nbsp;&lt;br&gt;Tutor" style="shape=umlActor;verticalLabelPosition=bottom;verticalAlign=top;html=1;fontSize=16;" parent="1" vertex="1">
          <mxGeometry x="595" y="-98" width="30" height="60" as="geometry" />
        </mxCell>
        <mxCell id="M2za0-usRnXLjD97VA7g-19" style="edgeStyle=none;curved=1;rounded=0;orthogonalLoop=1;jettySize=auto;html=1;exitX=0.5;exitY=0.5;exitDx=0;exitDy=0;exitPerimeter=0;fontSize=12;startSize=8;endSize=8;" parent="1" source="M2za0-usRnXLjD97VA7g-5" target="M2za0-usRnXLjD97VA7g-12" edge="1">
          <mxGeometry relative="1" as="geometry" />
        </mxCell>
        <mxCell id="M2za0-usRnXLjD97VA7g-20" style="edgeStyle=none;curved=1;rounded=0;orthogonalLoop=1;jettySize=auto;html=1;exitX=0.5;exitY=0.5;exitDx=0;exitDy=0;exitPerimeter=0;fontSize=12;startSize=8;endSize=8;" parent="1" source="M2za0-usRnXLjD97VA7g-5" target="M2za0-usRnXLjD97VA7g-16" edge="1">
          <mxGeometry relative="1" as="geometry" />
        </mxCell>
        <mxCell id="M2za0-usRnXLjD97VA7g-5" value="Student" style="shape=umlActor;verticalLabelPosition=bottom;verticalAlign=top;html=1;fontSize=16;" parent="1" vertex="1">
          <mxGeometry x="1185" y="-296" width="30" height="60" as="geometry" />
        </mxCell>
        <mxCell id="M2za0-usRnXLjD97VA7g-23" style="edgeStyle=none;curved=1;rounded=0;orthogonalLoop=1;jettySize=auto;html=1;exitX=0.5;exitY=0.5;exitDx=0;exitDy=0;exitPerimeter=0;entryX=0;entryY=0.5;entryDx=0;entryDy=0;fontSize=12;startSize=8;endSize=8;" parent="1" source="M2za0-usRnXLjD97VA7g-9" target="M2za0-usRnXLjD97VA7g-10" edge="1">
          <mxGeometry relative="1" as="geometry" />
        </mxCell>
        <mxCell id="M2za0-usRnXLjD97VA7g-9" value="Personal &lt;br&gt;Supervisor" style="shape=umlActor;verticalLabelPosition=bottom;verticalAlign=top;html=1;fontSize=16;" parent="1" vertex="1">
          <mxGeometry x="595" y="-466" width="30" height="60" as="geometry" />
        </mxCell>
        <mxCell id="M2za0-usRnXLjD97VA7g-10" value="Review the status of all their students" style="ellipse;whiteSpace=wrap;html=1;fontSize=16;" parent="1" vertex="1">
          <mxGeometry x="714" y="-352" width="128" height="86" as="geometry" />
        </mxCell>
        <mxCell id="M2za0-usRnXLjD97VA7g-11" value="Book a meeting with students" style="ellipse;whiteSpace=wrap;html=1;fontSize=16;" parent="1" vertex="1">
          <mxGeometry x="688" y="-460" width="140" height="70" as="geometry" />
        </mxCell>
        <mxCell id="M2za0-usRnXLjD97VA7g-30" style="edgeStyle=none;curved=1;rounded=0;orthogonalLoop=1;jettySize=auto;html=1;exitX=0;exitY=0.5;exitDx=0;exitDy=0;fontSize=12;startSize=8;endSize=8;" parent="1" source="M2za0-usRnXLjD97VA7g-12" target="M2za0-usRnXLjD97VA7g-27" edge="1">
          <mxGeometry relative="1" as="geometry" />
        </mxCell>
        <mxCell id="M2za0-usRnXLjD97VA7g-12" value="Book a meeting with personal supervisor" style="ellipse;whiteSpace=wrap;html=1;fontSize=16;" parent="1" vertex="1">
          <mxGeometry x="990" y="-359" width="140" height="70" as="geometry" />
        </mxCell>
        <mxCell id="M2za0-usRnXLjD97VA7g-13" value="See the status of all students&amp;nbsp;" style="ellipse;whiteSpace=wrap;html=1;fontSize=16;" parent="1" vertex="1">
          <mxGeometry x="681" y="-161" width="140" height="70" as="geometry" />
        </mxCell>
        <mxCell id="M2za0-usRnXLjD97VA7g-14" value="See how PS are interacting with students" style="ellipse;whiteSpace=wrap;html=1;fontSize=16;" parent="1" vertex="1">
          <mxGeometry x="707" y="-87" width="151" height="76" as="geometry" />
        </mxCell>
        <mxCell id="M2za0-usRnXLjD97VA7g-16" value="Self report how they are feeling/progressing at fixed intervals" style="ellipse;whiteSpace=wrap;html=1;fontSize=16;" parent="1" vertex="1">
          <mxGeometry x="951" y="-240" width="169" height="101" as="geometry" />
        </mxCell>
        <mxCell id="M2za0-usRnXLjD97VA7g-17" value="Provide availability for meeting" style="ellipse;whiteSpace=wrap;html=1;fontSize=16;" parent="1" vertex="1">
          <mxGeometry x="1005" y="-471" width="140" height="70" as="geometry" />
        </mxCell>
        <mxCell id="M2za0-usRnXLjD97VA7g-24" style="edgeStyle=none;curved=1;rounded=0;orthogonalLoop=1;jettySize=auto;html=1;exitX=0.5;exitY=0.5;exitDx=0;exitDy=0;exitPerimeter=0;entryX=0.055;entryY=0.324;entryDx=0;entryDy=0;entryPerimeter=0;fontSize=12;startSize=8;endSize=8;" parent="1" source="M2za0-usRnXLjD97VA7g-9" target="M2za0-usRnXLjD97VA7g-11" edge="1">
          <mxGeometry relative="1" as="geometry" />
        </mxCell>
        <mxCell id="M2za0-usRnXLjD97VA7g-29" style="edgeStyle=none;curved=1;rounded=0;orthogonalLoop=1;jettySize=auto;html=1;exitX=1;exitY=0;exitDx=0;exitDy=0;entryX=0;entryY=0.5;entryDx=0;entryDy=0;fontSize=12;startSize=8;endSize=8;" parent="1" source="M2za0-usRnXLjD97VA7g-27" target="M2za0-usRnXLjD97VA7g-17" edge="1">
          <mxGeometry relative="1" as="geometry" />
        </mxCell>
        <mxCell id="M2za0-usRnXLjD97VA7g-27" value="Indicate if rather have meeting face-to-face or on teams" style="ellipse;whiteSpace=wrap;html=1;fontSize=16;" parent="1" vertex="1">
          <mxGeometry x="834" y="-438" width="171" height="96" as="geometry" />
        </mxCell>
        <mxCell id="M2za0-usRnXLjD97VA7g-28" style="edgeStyle=none;curved=1;rounded=0;orthogonalLoop=1;jettySize=auto;html=1;exitX=1;exitY=0.5;exitDx=0;exitDy=0;entryX=0.066;entryY=0.253;entryDx=0;entryDy=0;entryPerimeter=0;fontSize=12;startSize=8;endSize=8;" parent="1" source="M2za0-usRnXLjD97VA7g-11" target="M2za0-usRnXLjD97VA7g-27" edge="1">
          <mxGeometry relative="1" as="geometry" />
        </mxCell>
      </root>
    </mxGraphModel>
  </diagram>
  <diagram id="Rtci-va_EIyoQTLQynJg" name="Page-2">
    <mxGraphModel dx="1194" dy="920" grid="0" gridSize="10" guides="1" tooltips="1" connect="1" arrows="1" fold="1" page="0" pageScale="1" pageWidth="827" pageHeight="1169" math="0" shadow="0">
      <root>
        <mxCell id="0" />
        <mxCell id="1" parent="0" />
        <mxCell id="N5zw6gJsVyAMzcJNZis3-1" value="" style="shape=table;startSize=0;container=1;collapsible=0;childLayout=tableLayout;fontSize=16;" vertex="1" parent="1">
          <mxGeometry x="-75" y="-21" width="541" height="537.17" as="geometry" />
        </mxCell>
        <mxCell id="N5zw6gJsVyAMzcJNZis3-2" value="" style="shape=tableRow;horizontal=0;startSize=0;swimlaneHead=0;swimlaneBody=0;strokeColor=inherit;top=0;left=0;bottom=0;right=0;collapsible=0;dropTarget=0;fillColor=none;points=[[0,0.5],[1,0.5]];portConstraint=eastwest;fontSize=16;" vertex="1" parent="N5zw6gJsVyAMzcJNZis3-1">
          <mxGeometry width="541" height="48" as="geometry" />
        </mxCell>
        <mxCell id="N5zw6gJsVyAMzcJNZis3-3" value="Student" style="shape=partialRectangle;html=1;whiteSpace=wrap;connectable=0;strokeColor=inherit;overflow=hidden;fillColor=none;top=0;left=0;bottom=0;right=0;pointerEvents=1;fontSize=16;" vertex="1" parent="N5zw6gJsVyAMzcJNZis3-2">
          <mxGeometry width="180" height="48" as="geometry">
            <mxRectangle width="180" height="48" as="alternateBounds" />
          </mxGeometry>
        </mxCell>
        <mxCell id="N5zw6gJsVyAMzcJNZis3-4" value="Personal Supervisor" style="shape=partialRectangle;html=1;whiteSpace=wrap;connectable=0;strokeColor=inherit;overflow=hidden;fillColor=none;top=0;left=0;bottom=0;right=0;pointerEvents=1;fontSize=16;" vertex="1" parent="N5zw6gJsVyAMzcJNZis3-2">
          <mxGeometry x="180" width="181" height="48" as="geometry">
            <mxRectangle width="181" height="48" as="alternateBounds" />
          </mxGeometry>
        </mxCell>
        <mxCell id="N5zw6gJsVyAMzcJNZis3-5" value="Senior Tutor" style="shape=partialRectangle;html=1;whiteSpace=wrap;connectable=0;strokeColor=inherit;overflow=hidden;fillColor=none;top=0;left=0;bottom=0;right=0;pointerEvents=1;fontSize=16;" vertex="1" parent="N5zw6gJsVyAMzcJNZis3-2">
          <mxGeometry x="361" width="180" height="48" as="geometry">
            <mxRectangle width="180" height="48" as="alternateBounds" />
          </mxGeometry>
        </mxCell>
        <mxCell id="N5zw6gJsVyAMzcJNZis3-6" value="" style="shape=tableRow;horizontal=0;startSize=0;swimlaneHead=0;swimlaneBody=0;strokeColor=inherit;top=0;left=0;bottom=0;right=0;collapsible=0;dropTarget=0;fillColor=none;points=[[0,0.5],[1,0.5]];portConstraint=eastwest;fontSize=16;" vertex="1" parent="N5zw6gJsVyAMzcJNZis3-1">
          <mxGeometry y="48" width="541" height="489" as="geometry" />
        </mxCell>
        <mxCell id="N5zw6gJsVyAMzcJNZis3-7" value="" style="shape=partialRectangle;html=1;whiteSpace=wrap;connectable=0;strokeColor=inherit;overflow=hidden;fillColor=none;top=0;left=0;bottom=0;right=0;pointerEvents=1;fontSize=16;" vertex="1" parent="N5zw6gJsVyAMzcJNZis3-6">
          <mxGeometry width="180" height="489" as="geometry">
            <mxRectangle width="180" height="489" as="alternateBounds" />
          </mxGeometry>
        </mxCell>
        <mxCell id="N5zw6gJsVyAMzcJNZis3-8" value="" style="shape=partialRectangle;html=1;whiteSpace=wrap;connectable=0;strokeColor=inherit;overflow=hidden;fillColor=none;top=0;left=0;bottom=0;right=0;pointerEvents=1;fontSize=16;" vertex="1" parent="N5zw6gJsVyAMzcJNZis3-6">
          <mxGeometry x="180" width="181" height="489" as="geometry">
            <mxRectangle width="181" height="489" as="alternateBounds" />
          </mxGeometry>
        </mxCell>
        <mxCell id="N5zw6gJsVyAMzcJNZis3-9" value="" style="shape=partialRectangle;html=1;whiteSpace=wrap;connectable=0;strokeColor=inherit;overflow=hidden;fillColor=none;top=0;left=0;bottom=0;right=0;pointerEvents=1;fontSize=16;" vertex="1" parent="N5zw6gJsVyAMzcJNZis3-6">
          <mxGeometry x="361" width="180" height="489" as="geometry">
            <mxRectangle width="180" height="489" as="alternateBounds" />
          </mxGeometry>
        </mxCell>
        <mxCell id="N5zw6gJsVyAMzcJNZis3-13" style="edgeStyle=none;curved=1;rounded=0;orthogonalLoop=1;jettySize=auto;html=1;exitX=1;exitY=0.5;exitDx=0;exitDy=0;entryX=0;entryY=0.5;entryDx=0;entryDy=0;fontSize=12;startSize=8;endSize=8;" edge="1" parent="1" source="N5zw6gJsVyAMzcJNZis3-10" target="N5zw6gJsVyAMzcJNZis3-11">
          <mxGeometry relative="1" as="geometry" />
        </mxCell>
        <mxCell id="N5zw6gJsVyAMzcJNZis3-10" value="Report how feeling/ progressing at given interval" style="ellipse;whiteSpace=wrap;html=1;fontSize=16;" vertex="1" parent="1">
          <mxGeometry x="-52" y="59" width="135" height="106" as="geometry" />
        </mxCell>
        <mxCell id="N5zw6gJsVyAMzcJNZis3-15" style="edgeStyle=none;curved=1;rounded=0;orthogonalLoop=1;jettySize=auto;html=1;exitX=1;exitY=0.5;exitDx=0;exitDy=0;entryX=0;entryY=0.5;entryDx=0;entryDy=0;fontSize=12;startSize=8;endSize=8;" edge="1" parent="1" source="N5zw6gJsVyAMzcJNZis3-11" target="N5zw6gJsVyAMzcJNZis3-14">
          <mxGeometry relative="1" as="geometry" />
        </mxCell>
        <mxCell id="N5zw6gJsVyAMzcJNZis3-11" value="Student progress reviewed" style="ellipse;whiteSpace=wrap;html=1;fontSize=16;" vertex="1" parent="1">
          <mxGeometry x="130" y="77" width="140" height="70" as="geometry" />
        </mxCell>
        <mxCell id="N5zw6gJsVyAMzcJNZis3-14" value="Student progress reviewed" style="ellipse;whiteSpace=wrap;html=1;fontSize=16;" vertex="1" parent="1">
          <mxGeometry x="316" y="77" width="140" height="70" as="geometry" />
        </mxCell>
        <mxCell id="N5zw6gJsVyAMzcJNZis3-16" value="Request a meeting with Supervisor" style="ellipse;whiteSpace=wrap;html=1;fontSize=16;" vertex="1" parent="1">
          <mxGeometry x="-50" y="202" width="140" height="70" as="geometry" />
        </mxCell>
        <mxCell id="N5zw6gJsVyAMzcJNZis3-17" style="edgeStyle=none;curved=1;rounded=0;orthogonalLoop=1;jettySize=auto;html=1;exitX=0.5;exitY=1;exitDx=0;exitDy=0;entryX=0.471;entryY=0.119;entryDx=0;entryDy=0;entryPerimeter=0;fontSize=12;startSize=8;endSize=8;" edge="1" parent="1" source="N5zw6gJsVyAMzcJNZis3-10" target="N5zw6gJsVyAMzcJNZis3-16">
          <mxGeometry relative="1" as="geometry" />
        </mxCell>
        <mxCell id="N5zw6gJsVyAMzcJNZis3-24" style="edgeStyle=none;curved=1;rounded=0;orthogonalLoop=1;jettySize=auto;html=1;exitX=0.5;exitY=1;exitDx=0;exitDy=0;entryX=0.5;entryY=0;entryDx=0;entryDy=0;fontSize=12;startSize=8;endSize=8;" edge="1" parent="1" source="N5zw6gJsVyAMzcJNZis3-18" target="N5zw6gJsVyAMzcJNZis3-21">
          <mxGeometry relative="1" as="geometry" />
        </mxCell>
        <mxCell id="N5zw6gJsVyAMzcJNZis3-18" value="Request a meeting with Student" style="ellipse;whiteSpace=wrap;html=1;fontSize=16;" vertex="1" parent="1">
          <mxGeometry x="128" y="202" width="140" height="70" as="geometry" />
        </mxCell>
        <mxCell id="N5zw6gJsVyAMzcJNZis3-19" style="edgeStyle=none;curved=1;rounded=0;orthogonalLoop=1;jettySize=auto;html=1;exitX=0.5;exitY=1;exitDx=0;exitDy=0;entryX=0.514;entryY=0.11;entryDx=0;entryDy=0;entryPerimeter=0;fontSize=12;startSize=8;endSize=8;" edge="1" parent="1" source="N5zw6gJsVyAMzcJNZis3-11" target="N5zw6gJsVyAMzcJNZis3-18">
          <mxGeometry relative="1" as="geometry" />
        </mxCell>
        <mxCell id="N5zw6gJsVyAMzcJNZis3-29" style="edgeStyle=none;curved=1;rounded=0;orthogonalLoop=1;jettySize=auto;html=1;exitX=0.5;exitY=1;exitDx=0;exitDy=0;fontSize=12;startSize=8;endSize=8;" edge="1" parent="1" source="N5zw6gJsVyAMzcJNZis3-20" target="N5zw6gJsVyAMzcJNZis3-25">
          <mxGeometry relative="1" as="geometry" />
        </mxCell>
        <mxCell id="N5zw6gJsVyAMzcJNZis3-20" value="Indicate if face-to-face or via teams" style="ellipse;whiteSpace=wrap;html=1;fontSize=16;" vertex="1" parent="1">
          <mxGeometry x="-52" y="309" width="140" height="70" as="geometry" />
        </mxCell>
        <mxCell id="N5zw6gJsVyAMzcJNZis3-30" style="edgeStyle=none;curved=1;rounded=0;orthogonalLoop=1;jettySize=auto;html=1;exitX=0.5;exitY=1;exitDx=0;exitDy=0;fontSize=12;startSize=8;endSize=8;" edge="1" parent="1" source="N5zw6gJsVyAMzcJNZis3-21" target="N5zw6gJsVyAMzcJNZis3-26">
          <mxGeometry relative="1" as="geometry" />
        </mxCell>
        <mxCell id="N5zw6gJsVyAMzcJNZis3-21" value="Indicate if face-to-face or via teams" style="ellipse;whiteSpace=wrap;html=1;fontSize=16;" vertex="1" parent="1">
          <mxGeometry x="128" y="309" width="140" height="70" as="geometry" />
        </mxCell>
        <mxCell id="N5zw6gJsVyAMzcJNZis3-23" style="edgeStyle=none;curved=1;rounded=0;orthogonalLoop=1;jettySize=auto;html=1;exitX=0.5;exitY=1;exitDx=0;exitDy=0;entryX=0.514;entryY=0.124;entryDx=0;entryDy=0;entryPerimeter=0;fontSize=12;startSize=8;endSize=8;" edge="1" parent="1" source="N5zw6gJsVyAMzcJNZis3-16" target="N5zw6gJsVyAMzcJNZis3-20">
          <mxGeometry relative="1" as="geometry" />
        </mxCell>
        <mxCell id="N5zw6gJsVyAMzcJNZis3-31" style="edgeStyle=none;curved=1;rounded=0;orthogonalLoop=1;jettySize=auto;html=1;exitX=1;exitY=0.5;exitDx=0;exitDy=0;fontSize=12;startSize=8;endSize=8;" edge="1" parent="1" source="N5zw6gJsVyAMzcJNZis3-25" target="N5zw6gJsVyAMzcJNZis3-26">
          <mxGeometry relative="1" as="geometry" />
        </mxCell>
        <mxCell id="N5zw6gJsVyAMzcJNZis3-25" value="Provide availability" style="ellipse;whiteSpace=wrap;html=1;fontSize=16;" vertex="1" parent="1">
          <mxGeometry x="-54.5" y="414" width="140" height="70" as="geometry" />
        </mxCell>
        <mxCell id="N5zw6gJsVyAMzcJNZis3-32" style="edgeStyle=none;curved=1;rounded=0;orthogonalLoop=1;jettySize=auto;html=1;exitX=1;exitY=0.5;exitDx=0;exitDy=0;fontSize=12;startSize=8;endSize=8;" edge="1" parent="1" source="N5zw6gJsVyAMzcJNZis3-26" target="N5zw6gJsVyAMzcJNZis3-27">
          <mxGeometry relative="1" as="geometry" />
        </mxCell>
        <mxCell id="N5zw6gJsVyAMzcJNZis3-26" value="Provide availability" style="ellipse;whiteSpace=wrap;html=1;fontSize=16;" vertex="1" parent="1">
          <mxGeometry x="128" y="418" width="140" height="70" as="geometry" />
        </mxCell>
        <mxCell id="N5zw6gJsVyAMzcJNZis3-27" value="Interactions reviewed" style="ellipse;whiteSpace=wrap;html=1;fontSize=16;" vertex="1" parent="1">
          <mxGeometry x="311" y="422" width="140" height="70" as="geometry" />
        </mxCell>
      </root>
    </mxGraphModel>
  </diagram>
</mxfile>
